<svg viewBox="0 0 2150 1320" xmlns="http://www.w3.org/2000/svg">
<defs>
    <marker id="arr" viewBox="0 0 10 10" refX="8" refY="5" markerWidth="7" markerHeight="7" orient="auto-start-reverse">
      <path d="M0,0 L10,5 L0,10 z" fill="#4b5160"/>
    </marker>
    <marker id="arrRed" viewBox="0 0 10 10" refX="8" refY="5" markerWidth="7" markerHeight="7" orient="auto-start-reverse">
      <path d="M0,0 L10,5 L0,10 z" fill="#c0392b"/>
    </marker>
    <marker id="arrBlue" viewBox="0 0 10 10" refX="8" refY="5" markerWidth="7" markerHeight="7" orient="auto-start-reverse">
      <path d="M0,0 L10,5 L0,10 z" fill="#1c5fa8"/>
    </marker>

<pattern id="grid" width="28" height="28" patternUnits="userSpaceOnUse">
  <path d="M28 0H0V28" fill="none" stroke="#eef0f3" stroke-width="1"/>
</pattern>
</defs>
<rect width="2150" height="1320" fill="#ffffff"/>
<rect width="2150" height="1320" fill="url(#grid)"/>

<text x="40" y="46" font-size="28" font-weight="800" fill="#12151c" text-anchor="start" font-family="-apple-system,'Segoe UI',Helvetica,Arial,sans-serif">System Overview -- E-commerce MLOps Platform</text>
<text x="40" y="70" font-size="14" font-weight="400" fill="#5b6270" text-anchor="start" font-family="-apple-system,'Segoe UI',Helvetica,Arial,sans-serif">Same content as the full overview, laid out to mirror the reference composition</text>
<rect x="30" y="90" width="330" height="260" rx="14" fill="#3454d1" fill-opacity="0.06" stroke="#3454d1" stroke-width="1.6" stroke-dasharray="7,5"/><text x="48" y="116" font-size="13" font-weight="800" fill="#3454d1" text-anchor="start" font-family="-apple-system,'Segoe UI',Helvetica,Arial,sans-serif">DEVELOPER WORKFLOW</text>
<rect x="55" y="140" width="280" height="54" rx="9" fill="#ffffff" stroke="#c7cdd6" stroke-width="1.5"/><rect x="55" y="140" width="6" height="54" rx="3" fill="#1B1F24"/><g transform="translate(71,150) scale(1.0)"><rect width="24" height="24" rx="5" fill="#1B1F24"/><path d="M12 5.5a6.5 6.5 0 00-2.1 12.7c.3.1.4-.2.4-.3v-1.2c-1.8.4-2.2-.8-2.2-.8-.3-.8-.7-1-.7-1-.6-.4 0-.4 0-.4.7 0 1 .7 1 .7.6 1 1.6.8 2 .6 0-.4.2-.8.4-1-1.6-.2-3.2-.8-3.2-3.5 0-.8.3-1.4.7-1.9 0-.2-.3-1 .1-2 0 0 .6-.2 2 .7a6.8 6.8 0 013.6 0c1.4-1 2-.7 2-.7.4 1 .1 1.8.1 2 .4.5.7 1.1.7 1.9 0 2.7-1.6 3.3-3.2 3.5.3.2.5.7.5 1.4v2c0 .1.1.4.4.3A6.5 6.5 0 0012 5.5z" fill="#fff"/></g><text x="105" y="164" font-size="14.5" font-weight="700" fill="#1c2230" text-anchor="start" font-family="-apple-system,'Segoe UI',Helvetica,Arial,sans-serif">Write DAG / model code</text><text x="105" y="182.0" font-size="11" font-weight="400" fill="#5b6270" text-anchor="start" font-family="-apple-system,'Segoe UI',Helvetica,Arial,sans-serif">local dev, feature branches</text>
<rect x="55" y="205" width="150" height="54" rx="9" fill="#ffffff" stroke="#c7cdd6" stroke-width="1.5"/><rect x="55" y="205" width="6" height="54" rx="3" fill="#2496ED"/><g transform="translate(71,215) scale(1.0)"><rect width="24" height="24" rx="5" fill="#2496ED"/><path d="M3.5 12.5c1.2 3.4 3.6 5 8.7 5 5.8 0 9.3-2.6 10.4-6.4-.5-.4-1.3-.5-2.2-.3-.2-.9-.8-1.7-1.7-2.3l-.5.6c-.5.6-.5 1.5.1 2.1l.2.2H4.6z" fill="#fff"/><rect x="5.3" y="9.6" width="2" height="2" fill="#fff"/><rect x="7.9" y="9.6" width="2" height="2" fill="#fff"/><rect x="10.5" y="9.6" width="2" height="2" fill="#fff"/><rect x="7.9" y="7.1" width="2" height="2" fill="#fff"/><rect x="10.5" y="7.1" width="2" height="2" fill="#fff"/><rect x="13.1" y="9.6" width="2" height="2" fill="#fff"/></g><text x="105" y="229" font-size="10.5" font-weight="700" fill="#1c2230" text-anchor="start" font-family="-apple-system,'Segoe UI',Helvetica,Arial,sans-serif">docker compose</text><text x="105" y="247.0" font-size="11" font-weight="400" fill="#5b6270" text-anchor="start" font-family="-apple-system,'Segoe UI',Helvetica,Arial,sans-serif">test stack locally</text>
<rect x="215" y="205" width="120" height="54" rx="9" fill="#ffffff" stroke="#c7cdd6" stroke-width="1.5"/><rect x="215" y="205" width="6" height="54" rx="3" fill="#4B5563"/><g transform="translate(231,215) scale(1.0)"><rect width="24" height="24" rx="5" fill="#4B5563"/><path d="M12 8.5a3.5 3.5 0 100 7 3.5 3.5 0 000-7z" fill="none" stroke="#fff" stroke-width="1.2"/><path d="M12 5v1.6M12 17.4V19M5 12h1.6M17.4 12H19M7 7l1.1 1.1M15.9 15.9L17 17M17 7l-1.1 1.1M8.1 15.9L7 17" stroke="#fff" stroke-width="1.1" stroke-linecap="round"/></g><text x="265" y="229" font-size="10.5" font-weight="700" fill="#1c2230" text-anchor="start" font-family="-apple-system,'Segoe UI',Helvetica,Arial,sans-serif">build images</text><text x="265" y="247.0" font-size="11" font-weight="400" fill="#5b6270" text-anchor="start" font-family="-apple-system,'Segoe UI',Helvetica,Arial,sans-serif">for ECR</text>
<path d="M195,194 L195.0,194 L195.0,205 L195,205" fill="none" stroke="#3a3f4a" stroke-width="1.8" stroke-dasharray="6,5" stroke-linecap="round" marker-end="url(#arr)"/>
<rect x="400" y="90" width="620" height="220" rx="14" fill="#d98c2b" fill-opacity="0.06" stroke="#d98c2b" stroke-width="1.6" stroke-dasharray="7,5"/><text x="418" y="116" font-size="13" font-weight="800" fill="#d98c2b" text-anchor="start" font-family="-apple-system,'Segoe UI',Helvetica,Arial,sans-serif">DATA SOURCES (REAL-TIME)</text>
<rect x="425" y="140" width="170" height="54" rx="9" fill="#ffffff" stroke="#c7cdd6" stroke-width="1.5"/><rect x="425" y="140" width="6" height="54" rx="3" fill="#374151"/><g transform="translate(441,150) scale(1.0)"><rect width="24" height="24" rx="5" fill="#374151"/><circle cx="12" cy="9" r="3" fill="#fff"/><path d="M6 19c0-3.3 2.7-5 6-5s6 1.7 6 5" fill="none" stroke="#fff" stroke-width="1.3"/></g><text x="475" y="164" font-size="14.5" font-weight="700" fill="#1c2230" text-anchor="start" font-family="-apple-system,'Segoe UI',Helvetica,Arial,sans-serif">Customer</text><text x="475" y="182.0" font-size="11" font-weight="400" fill="#5b6270" text-anchor="start" font-family="-apple-system,'Segoe UI',Helvetica,Arial,sans-serif">POST /api/v1/reviews</text>
<rect x="620" y="140" width="180" height="54" rx="9" fill="#ffffff" stroke="#c7cdd6" stroke-width="1.5"/><rect x="620" y="140" width="6" height="54" rx="3" fill="#131313"/><g transform="translate(636,150) scale(1.0)"><rect width="24" height="24" rx="5" fill="#131313"/><circle cx="6.5" cy="6" r="1.7" fill="#fff"/><circle cx="17.5" cy="6" r="1.7" fill="#fff"/><circle cx="6.5" cy="18" r="1.7" fill="#fff"/><circle cx="17.5" cy="18" r="1.7" fill="#fff"/><circle cx="12" cy="12" r="1.9" fill="#fff"/><path d="M8 7l3 3.6M16 7l-3 3.6M8 17l3-3.6M16 17l-3-3.6" stroke="#fff" stroke-width="1"/></g><text x="670" y="164" font-size="14.5" font-weight="700" fill="#1c2230" text-anchor="start" font-family="-apple-system,'Segoe UI',Helvetica,Arial,sans-serif">Kafka topic</text><text x="670" y="182.0" font-size="11" font-weight="400" fill="#5b6270" text-anchor="start" font-family="-apple-system,'Segoe UI',Helvetica,Arial,sans-serif">new_reviews</text>
<rect x="820" y="140" width="175" height="54" rx="9" fill="#ffffff" stroke="#c7cdd6" stroke-width="1.5"/><rect x="820" y="140" width="6" height="54" rx="3" fill="#4B5563"/><g transform="translate(836,150) scale(1.0)"><rect width="24" height="24" rx="5" fill="#4B5563"/><path d="M12 8.5a3.5 3.5 0 100 7 3.5 3.5 0 000-7z" fill="none" stroke="#fff" stroke-width="1.2"/><path d="M12 5v1.6M12 17.4V19M5 12h1.6M17.4 12H19M7 7l1.1 1.1M15.9 15.9L17 17M17 7l-1.1 1.1M8.1 15.9L7 17" stroke="#fff" stroke-width="1.1" stroke-linecap="round"/></g><text x="870" y="164" font-size="14.5" font-weight="700" fill="#1c2230" text-anchor="start" font-family="-apple-system,'Segoe UI',Helvetica,Arial,sans-serif">stream.py</text><text x="870" y="182.0" font-size="11" font-weight="400" fill="#5b6270" text-anchor="start" font-family="-apple-system,'Segoe UI',Helvetica,Arial,sans-serif">consumer + scoring</text>
<rect x="620" y="210" width="180" height="48" rx="9" fill="#fdecea" stroke="#c7cdd6" stroke-width="1.5"/><rect x="620" y="210" width="6" height="48" rx="3" fill="#131313"/><g transform="translate(636,220) scale(1.0)"><rect width="24" height="24" rx="5" fill="#131313"/><circle cx="6.5" cy="6" r="1.7" fill="#fff"/><circle cx="17.5" cy="6" r="1.7" fill="#fff"/><circle cx="6.5" cy="18" r="1.7" fill="#fff"/><circle cx="17.5" cy="18" r="1.7" fill="#fff"/><circle cx="12" cy="12" r="1.9" fill="#fff"/><path d="M8 7l3 3.6M16 7l-3 3.6M8 17l3-3.6M16 17l-3-3.6" stroke="#fff" stroke-width="1"/></g><text x="670" y="234" font-size="12.903225806451612" font-weight="700" fill="#1c2230" text-anchor="start" font-family="-apple-system,'Segoe UI',Helvetica,Arial,sans-serif">new_reviews_dlq</text>
<path d="M595,167 L607.5,167 L607.5,167 L620,167" fill="none" stroke="#3a3f4a" stroke-width="1.8" stroke-dasharray="6,5" stroke-linecap="round" marker-end="url(#arr)"/>
<path d="M800,167 L810.0,167 L810.0,167 L820,167" fill="none" stroke="#3a3f4a" stroke-width="1.8" stroke-dasharray="6,5" stroke-linecap="round" marker-end="url(#arr)"/>
<path d="M710,194 L710.0,194 L710.0,210 L710,210" fill="none" stroke="#3a3f4a" stroke-width="1.8" stroke-dasharray="6,5" stroke-linecap="round" marker-end="url(#arr)"/>
<rect x="400" y="350" width="330" height="330" rx="14" fill="#1e9e6b" fill-opacity="0.06" stroke="#1e9e6b" stroke-width="1.6" stroke-dasharray="7,5"/><text x="418" y="376" font-size="13" font-weight="800" fill="#1e9e6b" text-anchor="start" font-family="-apple-system,'Segoe UI',Helvetica,Arial,sans-serif">FEATURE STORE</text>
<rect x="425" y="400" width="280" height="54" rx="9" fill="#ffffff" stroke="#c7cdd6" stroke-width="1.5"/><rect x="425" y="400" width="6" height="54" rx="3" fill="#F45D01"/><g transform="translate(441,410) scale(1.0)"><rect width="24" height="24" rx="5" fill="#F45D01"/><path d="M12 5c-1.6 3-4 3.4-4 6.4a4 4 0 008 0C16 8.4 13.6 8 12 5z" fill="none" stroke="#fff" stroke-width="1.2"/><path d="M12 13v6" stroke="#fff" stroke-width="1.2"/></g><text x="475" y="424" font-size="14.5" font-weight="700" fill="#1c2230" text-anchor="start" font-family="-apple-system,'Segoe UI',Helvetica,Arial,sans-serif">Feast Feature Repo</text><text x="475" y="442.0" font-size="11" font-weight="400" fill="#5b6270" text-anchor="start" font-family="-apple-system,'Segoe UI',Helvetica,Arial,sans-serif">entity: customer</text>
<rect x="425" y="470" width="280" height="54" rx="9" fill="#ffffff" stroke="#c7cdd6" stroke-width="1.5"/><rect x="425" y="470" width="6" height="54" rx="3" fill="#A41E11"/><g transform="translate(441,480) scale(1.0)"><rect width="24" height="24" rx="5" fill="#A41E11"/><rect x="5" y="14.5" width="4" height="3" fill="#fff"/><rect x="10" y="14.5" width="4" height="3" fill="#fff"/><rect x="15" y="14.5" width="4" height="3" fill="#fff"/><rect x="7.5" y="10.5" width="4" height="3" fill="#fff"/><rect x="12.5" y="10.5" width="4" height="3" fill="#fff"/><rect x="10" y="6.5" width="4" height="3" fill="#fff"/></g><text x="475" y="494" font-size="14.5" font-weight="700" fill="#1c2230" text-anchor="start" font-family="-apple-system,'Segoe UI',Helvetica,Arial,sans-serif">Redis (db=1)</text><text x="475" y="512.0" font-size="11" font-weight="400" fill="#5b6270" text-anchor="start" font-family="-apple-system,'Segoe UI',Helvetica,Arial,sans-serif">online store</text>
<rect x="425" y="540" width="280" height="54" rx="9" fill="#ffffff" stroke="#c7cdd6" stroke-width="1.5"/><rect x="425" y="540" width="6" height="54" rx="3" fill="#8B93A7"/><g transform="translate(441,550) scale(1.0)"><rect width="24" height="24" rx="5" fill="#8B93A7"/><path d="M7 4.5h7l3 3v12H7z" fill="none" stroke="#fff" stroke-width="1.1" stroke-linejoin="round"/><path d="M14 4.5v3h3" fill="none" stroke="#fff" stroke-width="1.1"/><path d="M9 12h6M9 15h6M9 9.5h2.5" stroke="#fff" stroke-width="1"/></g><text x="475" y="564" font-size="14.5" font-weight="700" fill="#1c2230" text-anchor="start" font-family="-apple-system,'Segoe UI',Helvetica,Arial,sans-serif">Offline store</text><text x="475" y="582.0" font-size="11" font-weight="400" fill="#5b6270" text-anchor="start" font-family="-apple-system,'Segoe UI',Helvetica,Arial,sans-serif">dummy_sentiment.parquet</text>
<path d="M565,454 L565.0,454 L565.0,470 L565,470" fill="none" stroke="#3a3f4a" stroke-width="1.8" stroke-dasharray="6,5" stroke-linecap="round" marker-end="url(#arr)"/>
<path d="M565,524 L565.0,524 L565.0,540 L565,540" fill="none" stroke="#3a3f4a" stroke-width="1.8" stroke-dasharray="6,5" stroke-linecap="round" marker-end="url(#arr)"/>
<path d="M907,194 C960,260 700,320 565,350" fill="none" stroke="#3a3f4a" stroke-width="1.8" stroke-dasharray="6,5" stroke-linecap="round" marker-end="url(#arr)"/>
<rect x="695" y="287" width="88.80000000000001" height="18" rx="4" fill="#ffffff" stroke="#e3e6ec" stroke-width="1"/><text x="700" y="300" font-size="11.5" font-weight="600" fill="#8a5a1a" text-anchor="start" font-family="-apple-system,'Segoe UI',Helvetica,Arial,sans-serif">push feature</text>
<rect x="770" y="350" width="320" height="460" rx="14" fill="#6a5acd" fill-opacity="0.06" stroke="#6a5acd" stroke-width="1.6" stroke-dasharray="7,5"/><text x="788" y="376" font-size="13" font-weight="800" fill="#6a5acd" text-anchor="start" font-family="-apple-system,'Segoe UI',Helvetica,Arial,sans-serif">DATA PLATFORM (AIRFLOW, @DAILY)</text>
<rect x="795" y="400" width="270" height="54" rx="9" fill="#ffffff" stroke="#c7cdd6" stroke-width="1.5"/><rect x="795" y="400" width="6" height="54" rx="3" fill="#3F8624"/><g transform="translate(811,410) scale(1.0)"><rect width="24" height="24" rx="5" fill="#3F8624"/><path d="M7 6h10v3.2c0 .5-1 1-1 1.8s1 1.3 1 1.8-1 1-1 1.8 1 1.3 1 1.8v2.6H7v-2.6c0-.5 1-1 1-1.8s-1-1.3-1-1.8 1-1 1-1.8-1-1.3-1-1.8V6z" fill="none" stroke="#fff" stroke-width="1.1"/></g><text x="845" y="424" font-size="14.5" font-weight="700" fill="#1c2230" text-anchor="start" font-family="-apple-system,'Segoe UI',Helvetica,Arial,sans-serif">S3 Bronze</text><text x="845" y="442.0" font-size="11" font-weight="400" fill="#5b6270" text-anchor="start" font-family="-apple-system,'Segoe UI',Helvetica,Arial,sans-serif">products/, comments/</text>
<rect x="795" y="470" width="270" height="54" rx="9" fill="#ffffff" stroke="#c7cdd6" stroke-width="1.5"/><rect x="795" y="470" width="6" height="54" rx="3" fill="#0B6E99"/><g transform="translate(811,480) scale(1.0)"><rect width="24" height="24" rx="5" fill="#0B6E99"/><path d="M12 4l5 9H7z" fill="#cfeeff"/><path d="M12 4l-5 13h10z" fill="none" stroke="#fff" stroke-width="1"/><path d="M4 20l4-7 2 3 2-4 2 4 2-3 4 7z" fill="#fff" opacity=".9"/></g><text x="845" y="494" font-size="14.5" font-weight="700" fill="#1c2230" text-anchor="start" font-family="-apple-system,'Segoe UI',Helvetica,Arial,sans-serif">Iceberg silver</text><text x="845" y="512.0" font-size="11" font-weight="400" fill="#5b6270" text-anchor="start" font-family="-apple-system,'Segoe UI',Helvetica,Arial,sans-serif">cleaned_product/comment</text>
<rect x="795" y="540" width="270" height="54" rx="9" fill="#ffffff" stroke="#c7cdd6" stroke-width="1.5"/><rect x="795" y="540" width="6" height="54" rx="3" fill="#FF694A"/><g transform="translate(811,550) scale(1.0)"><rect width="24" height="24" rx="5" fill="#FF694A"/><path d="M6 8c3 0 3 3.2 6 3.2S15 8 18 8" stroke="#fff" stroke-width="1.6" fill="none" stroke-linecap="round"/><path d="M6 16c3 0 3-3.2 6-3.2s3 3.2 6 3.2" stroke="#fff" stroke-width="1.6" fill="none" stroke-linecap="round"/></g><text x="845" y="564" font-size="14.5" font-weight="700" fill="#1c2230" text-anchor="start" font-family="-apple-system,'Segoe UI',Helvetica,Arial,sans-serif">dbt: staging-&gt;mart</text><text x="845" y="582.0" font-size="11" font-weight="400" fill="#5b6270" text-anchor="start" font-family="-apple-system,'Segoe UI',Helvetica,Arial,sans-serif">snapshot, mart, test</text>
<rect x="795" y="610" width="270" height="54" rx="9" fill="#ffffff" stroke="#c7cdd6" stroke-width="1.5"/><rect x="795" y="610" width="6" height="54" rx="3" fill="#5B3DE0"/><g transform="translate(811,620) scale(1.0)"><rect width="24" height="24" rx="5" fill="#5B3DE0"/><path d="M5 15l3-4 3 2.5 5-6.5 3 3.5" fill="none" stroke="#fff" stroke-width="1.4" stroke-linecap="round" stroke-linejoin="round"/></g><text x="845" y="634" font-size="14.5" font-weight="700" fill="#1c2230" text-anchor="start" font-family="-apple-system,'Segoe UI',Helvetica,Arial,sans-serif">check_drift</text><text x="845" y="652.0" font-size="11" font-weight="400" fill="#5b6270" text-anchor="start" font-family="-apple-system,'Segoe UI',Helvetica,Arial,sans-serif">Evidently AI</text>
<rect x="795" y="690" width="270" height="54" rx="9" fill="#ffffff" stroke="#c7cdd6" stroke-width="1.5"/><rect x="795" y="690" width="6" height="54" rx="3" fill="#E25A1C"/><g transform="translate(811,700) scale(1.0)"><rect width="24" height="24" rx="5" fill="#E25A1C"/><path d="M12 4l1.3 5.3L18 8l-3.6 3.7L18 16l-4.7-1.3L12 20l-1.3-5.3L6 16l3.6-4.3L6 8l4.7 1.3z" fill="#fff"/></g><text x="845" y="714" font-size="14.5" font-weight="700" fill="#1c2230" text-anchor="start" font-family="-apple-system,'Segoe UI',Helvetica,Arial,sans-serif">spark_ml_inference</text><text x="845" y="732.0" font-size="11" font-weight="400" fill="#5b6270" text-anchor="start" font-family="-apple-system,'Segoe UI',Helvetica,Arial,sans-serif">batch scoring</text>
<path d="M930,454 L930,470" fill="none" stroke="#3a3f4a" stroke-width="1.8" stroke-dasharray="6,5" stroke-linecap="round" marker-end="url(#arr)"/>
<path d="M930,524 L930,540" fill="none" stroke="#3a3f4a" stroke-width="1.8" stroke-dasharray="6,5" stroke-linecap="round" marker-end="url(#arr)"/>
<path d="M930,594 L930,610" fill="none" stroke="#3a3f4a" stroke-width="1.8" stroke-dasharray="6,5" stroke-linecap="round" marker-end="url(#arr)"/>
<path d="M930,664 L930,680" fill="none" stroke="#3a3f4a" stroke-width="1.8" stroke-dasharray="6,5" stroke-linecap="round" marker-end="url(#arr)"/>
<path d="M907,194 C920,260 860,340 795,400" fill="none" stroke="#3a3f4a" stroke-width="1.8" stroke-dasharray="6,5" stroke-linecap="round" marker-end="url(#arr)"/>
<rect x="1150" y="90" width="620" height="590" rx="14" fill="#7b3fb0" fill-opacity="0.06" stroke="#7b3fb0" stroke-width="1.6" stroke-dasharray="7,5"/><text x="1168" y="116" font-size="13" font-weight="800" fill="#7b3fb0" text-anchor="start" font-family="-apple-system,'Segoe UI',Helvetica,Arial,sans-serif">TRAINING -- WEEKLY RETRAIN (DAG RECSYS_RETRAINING_PIPELINE)</text>
<rect x="1180" y="145" width="260" height="54" rx="9" fill="#ffffff" stroke="#c7cdd6" stroke-width="1.5"/><rect x="1180" y="145" width="6" height="54" rx="3" fill="#017CEE"/><g transform="translate(1196,155) scale(1.0)"><rect width="24" height="24" rx="5" fill="#017CEE"/><circle cx="12" cy="12" r="6.3" fill="none" stroke="#fff" stroke-width="1.2"/><path d="M12 12L8 8.3M12 12l5-1M12 12l-1.4 5.4" stroke="#fff" stroke-width="1.3" stroke-linecap="round"/><circle cx="12" cy="12" r="1.4" fill="#fff"/></g><text x="1230" y="169" font-size="14.5" font-weight="700" fill="#1c2230" text-anchor="start" font-family="-apple-system,'Segoe UI',Helvetica,Arial,sans-serif">Airflow (weekly)</text><text x="1230" y="187.0" font-size="11" font-weight="400" fill="#5b6270" text-anchor="start" font-family="-apple-system,'Segoe UI',Helvetica,Arial,sans-serif">recsys_retraining_pipeline</text>
<rect x="1470" y="145" width="270" height="54" rx="9" fill="#ffffff" stroke="#c7cdd6" stroke-width="1.5"/><rect x="1470" y="145" width="6" height="54" rx="3" fill="#EE4C2C"/><g transform="translate(1486,155) scale(1.0)"><rect width="24" height="24" rx="5" fill="#EE4C2C"/><path d="M14.6 6.2a6 6 0 11-6.4 0M12 4.5v6" stroke="#fff" stroke-width="1.3" fill="none" stroke-linecap="round"/><circle cx="12" cy="9" r="1" fill="#fff"/></g><text x="1520" y="169" font-size="14.5" font-weight="700" fill="#1c2230" text-anchor="start" font-family="-apple-system,'Segoe UI',Helvetica,Arial,sans-serif">train_model</text><text x="1520" y="187.0" font-size="11" font-weight="400" fill="#5b6270" text-anchor="start" font-family="-apple-system,'Segoe UI',Helvetica,Arial,sans-serif">Two-Tower, PyTorch</text>
<path d="M1440,172 L1455.0,172 L1455.0,172 L1470,172" fill="none" stroke="#3a3f4a" stroke-width="1.8" stroke-dasharray="6,5" stroke-linecap="round" marker-end="url(#arr)"/>
<rect x="1470" y="215" width="270" height="54" rx="9" fill="#ffffff" stroke="#c7cdd6" stroke-width="1.5"/><rect x="1470" y="215" width="6" height="54" rx="3" fill="#0194E2"/><g transform="translate(1486,225) scale(1.0)"><rect width="24" height="24" rx="5" fill="#0194E2"/><path d="M12 5l6 3.5v7L12 19l-6-3.5v-7z" fill="none" stroke="#fff" stroke-width="1.1"/><circle cx="12" cy="12" r="2.1" fill="#fff"/></g><text x="1520" y="239" font-size="14.5" font-weight="700" fill="#1c2230" text-anchor="start" font-family="-apple-system,'Segoe UI',Helvetica,Arial,sans-serif">MLflow Tracking</text><text x="1520" y="257.0" font-size="11" font-weight="400" fill="#5b6270" text-anchor="start" font-family="-apple-system,'Segoe UI',Helvetica,Arial,sans-serif">exp: two_tower_recsys</text>
<path d="M1605,199 L1605,215" fill="none" stroke="#3a3f4a" stroke-width="1.8" stroke-dasharray="6,5" stroke-linecap="round" marker-end="url(#arr)"/>
<rect x="1180" y="285" width="260" height="60" rx="9" fill="#ffffff" stroke="#c7cdd6" stroke-width="1.5"/><rect x="1180" y="285" width="6" height="60" rx="3" fill="#4B5563"/><g transform="translate(1196,295) scale(1.0)"><rect width="24" height="24" rx="5" fill="#4B5563"/><path d="M12 8.5a3.5 3.5 0 100 7 3.5 3.5 0 000-7z" fill="none" stroke="#fff" stroke-width="1.2"/><path d="M12 5v1.6M12 17.4V19M5 12h1.6M17.4 12H19M7 7l1.1 1.1M15.9 15.9L17 17M17 7l-1.1 1.1M8.1 15.9L7 17" stroke="#fff" stroke-width="1.1" stroke-linecap="round"/></g><text x="1230" y="309" font-size="12.406947890818858" font-weight="700" fill="#1c2230" text-anchor="start" font-family="-apple-system,'Segoe UI',Helvetica,Arial,sans-serif">evaluate -&gt; promotion_gate</text><text x="1230" y="327.0" font-size="11" font-weight="400" fill="#5b6270" text-anchor="start" font-family="-apple-system,'Segoe UI',Helvetica,Arial,sans-serif">compare valid_ndcg@10</text>
<path d="M1470,242 C1400,260 1360,265 1310,285" fill="none" stroke="#3a3f4a" stroke-width="1.8" stroke-dasharray="6,5" stroke-linecap="round" marker-end="url(#arr)"/>
<rect x="1470" y="355" width="270" height="54" rx="9" fill="#ffffff" stroke="#c7cdd6" stroke-width="1.5"/><rect x="1470" y="355" width="6" height="54" rx="3" fill="#0194E2"/><g transform="translate(1486,365) scale(1.0)"><rect width="24" height="24" rx="5" fill="#0194E2"/><path d="M12 5l6 3.5v7L12 19l-6-3.5v-7z" fill="none" stroke="#fff" stroke-width="1.1"/><circle cx="12" cy="12" r="2.1" fill="#fff"/></g><text x="1520" y="379" font-size="14.5" font-weight="700" fill="#1c2230" text-anchor="start" font-family="-apple-system,'Segoe UI',Helvetica,Arial,sans-serif">MLflow Registry</text><text x="1520" y="397.0" font-size="11" font-weight="400" fill="#5b6270" text-anchor="start" font-family="-apple-system,'Segoe UI',Helvetica,Arial,sans-serif">recsys-two-tower -&gt; Production</text>
<path d="M1310,315 C1380,330 1420,340 1470,355" fill="none" stroke="#3a3f4a" stroke-width="1.8" stroke-dasharray="6,5" stroke-linecap="round" marker-end="url(#arr)"/>
<rect x="1180" y="425" width="260" height="54" rx="9" fill="#ffffff" stroke="#c7cdd6" stroke-width="1.5"/><rect x="1180" y="425" width="6" height="54" rx="3" fill="#4C6EF5"/><g transform="translate(1196,435) scale(1.0)"><rect width="24" height="24" rx="5" fill="#4C6EF5"/><circle cx="8" cy="8" r="1.6" fill="#fff"/><circle cx="16" cy="7" r="1.6" fill="#fff"/><circle cx="7" cy="16" r="1.6" fill="#fff"/><circle cx="15" cy="15.5" r="1.6" fill="#fff"/><circle cx="12" cy="11" r="1.9" fill="#fff"/><path d="M8 8l4 3M16 7l-4 4M7 16l5-5M15 15.5l-3-4.5" stroke="#fff" stroke-width=".8"/></g><text x="1230" y="449" font-size="14.5" font-weight="700" fill="#1c2230" text-anchor="start" font-family="-apple-system,'Segoe UI',Helvetica,Arial,sans-serif">FAISS index</text><text x="1230" y="467.0" font-size="11" font-weight="400" fill="#5b6270" text-anchor="start" font-family="-apple-system,'Segoe UI',Helvetica,Arial,sans-serif">export_embeddings, build</text>
<path d="M1470,409 L1440,425" fill="none" stroke="#3a3f4a" stroke-width="1.8" stroke-dasharray="6,5" stroke-linecap="round" marker-end="url(#arr)"/>
<rect x="1245" y="387" width="88.80000000000001" height="18" rx="4" fill="#ffffff" stroke="#e3e6ec" stroke-width="1"/><text x="1250" y="400" font-size="11.5" font-weight="600" fill="#5b3a8a" text-anchor="start" font-family="-apple-system,'Segoe UI',Helvetica,Arial,sans-serif">on promotion</text>
<path d="M1180,460 L1155,500 L1155,900" fill="none" stroke="#1c5fa8" stroke-width="1.8" stroke-dasharray="6,5" stroke-linecap="round" marker-end="url(#arrBlue)"/>
<rect x="995" y="597" width="197.60000000000002" height="18" rx="4" fill="#ffffff" stroke="#e3e6ec" stroke-width="1"/><text x="1000" y="610" font-size="11.5" font-weight="600" fill="#b13c2f" text-anchor="start" font-family="-apple-system,'Segoe UI',Helvetica,Arial,sans-serif">drift triggers weekly retrain</text>
<path d="M1000,637 L1150,637" fill="none" stroke="#b13c2f" stroke-width="1.8" stroke-dasharray="6,5" stroke-linecap="round" marker-end="url(#arrRed)"/>
<rect x="1150" y="720" width="620" height="400" rx="14" fill="#2f6fd6" fill-opacity="0.06" stroke="#2f6fd6" stroke-width="1.6" stroke-dasharray="7,5"/><text x="1168" y="746" font-size="13" font-weight="800" fill="#2f6fd6" text-anchor="start" font-family="-apple-system,'Segoe UI',Helvetica,Arial,sans-serif">SERVING APIS</text>
<rect x="1180" y="770" width="260" height="150" rx="9" fill="#ffffff" stroke="#c7cdd6" stroke-width="1.5"/><rect x="1180" y="770" width="6" height="150" rx="3" fill="#009485"/><g transform="translate(1196,780) scale(1.0)"><rect width="24" height="24" rx="5" fill="#009485"/><circle cx="12" cy="12" r="7.3" fill="none" stroke="#fff" stroke-width="1.1"/><path d="M13.5 5.5L8 13h4l-1.5 5.5L17 11h-4z" fill="#fff"/></g><text x="1230" y="794" font-size="14.5" font-weight="700" fill="#1c2230" text-anchor="start" font-family="-apple-system,'Segoe UI',Helvetica,Arial,sans-serif">recsys-api</text><text x="1230" y="812.0" font-size="11" font-weight="400" fill="#5b6270" text-anchor="start" font-family="-apple-system,'Segoe UI',Helvetica,Arial,sans-serif">/recommend {customer_id}</text><text x="1230" y="826.5" font-size="11" font-weight="400" fill="#5b6270" text-anchor="start" font-family="-apple-system,'Segoe UI',Helvetica,Arial,sans-serif">Redis cache + Feast</text><text x="1230" y="841.0" font-size="11" font-weight="400" fill="#5b6270" text-anchor="start" font-family="-apple-system,'Segoe UI',Helvetica,Arial,sans-serif">+ FAISS + Two-Tower</text><text x="1230" y="855.5" font-size="11" font-weight="400" fill="#5b6270" text-anchor="start" font-family="-apple-system,'Segoe UI',Helvetica,Arial,sans-serif">user_tower()</text>
<rect x="1470" y="770" width="270" height="54" rx="9" fill="#ffffff" stroke="#c7cdd6" stroke-width="1.5"/><rect x="1470" y="770" width="6" height="54" rx="3" fill="#EE4C2C"/><g transform="translate(1486,780) scale(1.0)"><rect width="24" height="24" rx="5" fill="#EE4C2C"/><path d="M14.6 6.2a6 6 0 11-6.4 0M12 4.5v6" stroke="#fff" stroke-width="1.3" fill="none" stroke-linecap="round"/><circle cx="12" cy="9" r="1" fill="#fff"/></g><text x="1520" y="794" font-size="14.5" font-weight="700" fill="#1c2230" text-anchor="start" font-family="-apple-system,'Segoe UI',Helvetica,Arial,sans-serif">sentiment-api</text><text x="1520" y="812.0" font-size="11" font-weight="400" fill="#5b6270" text-anchor="start" font-family="-apple-system,'Segoe UI',Helvetica,Arial,sans-serif">PhoBERT ONNX /predict</text>
<rect x="1470" y="840" width="270" height="150" rx="9" fill="#ffffff" stroke="#c7cdd6" stroke-width="1.5"/><rect x="1470" y="840" width="6" height="150" rx="3" fill="#009485"/><g transform="translate(1486,850) scale(1.0)"><rect width="24" height="24" rx="5" fill="#009485"/><circle cx="12" cy="12" r="7.3" fill="none" stroke="#fff" stroke-width="1.1"/><path d="M13.5 5.5L8 13h4l-1.5 5.5L17 11h-4z" fill="#fff"/></g><text x="1520" y="864" font-size="14.5" font-weight="700" fill="#1c2230" text-anchor="start" font-family="-apple-system,'Segoe UI',Helvetica,Arial,sans-serif">agent-api</text><text x="1520" y="882.0" font-size="11" font-weight="400" fill="#5b6270" text-anchor="start" font-family="-apple-system,'Segoe UI',Helvetica,Arial,sans-serif">router -&gt; kb_search / agent</text><text x="1520" y="896.5" font-size="11" font-weight="400" fill="#5b6270" text-anchor="start" font-family="-apple-system,'Segoe UI',Helvetica,Arial,sans-serif">tools: search/filter/detail,</text><text x="1520" y="911.0" font-size="11" font-weight="400" fill="#5b6270" text-anchor="start" font-family="-apple-system,'Segoe UI',Helvetica,Arial,sans-serif">get_recommendations,</text><text x="1520" y="925.5" font-size="11" font-weight="400" fill="#5b6270" text-anchor="start" font-family="-apple-system,'Segoe UI',Helvetica,Arial,sans-serif">search_kb (Qdrant + LLM)</text>
<path d="M1155,900 L1180,850" fill="none" stroke="#3a3f4a" stroke-width="1.8" stroke-dasharray="6,5" stroke-linecap="round" marker-end="url(#arr)"/>
<rect x="1830" y="90" width="280" height="1030" rx="14" fill="#c1392b" fill-opacity="0.06" stroke="#c1392b" stroke-width="1.6" stroke-dasharray="7,5"/><text x="1848" y="116" font-size="13" font-weight="800" fill="#c1392b" text-anchor="start" font-family="-apple-system,'Segoe UI',Helvetica,Arial,sans-serif">MONITORING</text>
<rect x="1855" y="150" width="230" height="60" rx="9" fill="#ffffff" stroke="#c7cdd6" stroke-width="1.5"/><rect x="1855" y="150" width="6" height="60" rx="3" fill="#DA4E31"/><g transform="translate(1871,160) scale(1.0)"><rect width="24" height="24" rx="5" fill="#DA4E31"/><path d="M12 4c-3 3-4.5 5.4-4.5 8a4.5 4.5 0 009 0c0-1-.3-1.8-.8-2.6-.3 1-1 1.6-1.7 1.6.6-2-.3-4.4-2-7z" fill="#fff"/><path d="M8.3 15.5h7.4M8.7 17.3h6.6M9.3 19h5.4" stroke="#DA4E31" stroke-width=".9"/></g><text x="1905" y="174" font-size="14.5" font-weight="700" fill="#1c2230" text-anchor="start" font-family="-apple-system,'Segoe UI',Helvetica,Arial,sans-serif">Prometheus</text><text x="1905" y="192.0" font-size="11" font-weight="400" fill="#5b6270" text-anchor="start" font-family="-apple-system,'Segoe UI',Helvetica,Arial,sans-serif">scrapes recsys-api,</text>
<text x="1875" y="226" font-size="10.5" font-weight="500" fill="#5c1a14" text-anchor="start" font-family="-apple-system,'Segoe UI',Helvetica,Arial,sans-serif">agent-api, mlflow, node/</text>
<text x="1875" y="240" font-size="10.5" font-weight="500" fill="#5c1a14" text-anchor="start" font-family="-apple-system,'Segoe UI',Helvetica,Arial,sans-serif">cadvisor/redis exporters</text>
<rect x="1855" y="400" width="230" height="60" rx="9" fill="#ffffff" stroke="#c7cdd6" stroke-width="1.5"/><rect x="1855" y="400" width="6" height="60" rx="3" fill="#F46800"/><g transform="translate(1871,410) scale(1.0)"><rect width="24" height="24" rx="5" fill="#F46800"/><path d="M17.5 8.3a3 3 0 00-2.9-3.6 3.4 3.4 0 00-5.6 2.6v.2A4.6 4.6 0 006 11.8a4.7 4.7 0 004.7 4.7 4.6 4.6 0 004.6-4.3 3.4 3.4 0 002.2-3.9z" fill="#fff"/><circle cx="10.6" cy="12" r="1.9" fill="#F46800"/></g><text x="1905" y="424" font-size="14.5" font-weight="700" fill="#1c2230" text-anchor="start" font-family="-apple-system,'Segoe UI',Helvetica,Arial,sans-serif">Grafana</text><text x="1905" y="442.0" font-size="11" font-weight="400" fill="#5b6270" text-anchor="start" font-family="-apple-system,'Segoe UI',Helvetica,Arial,sans-serif">7 dashboards</text>
<rect x="1855" y="650" width="230" height="60" rx="9" fill="#ffffff" stroke="#c7cdd6" stroke-width="1.5"/><rect x="1855" y="650" width="6" height="60" rx="3" fill="#60D0E4"/><g transform="translate(1871,660) scale(1.0)"><rect width="24" height="24" rx="5" fill="#60D0E4"/><circle cx="12" cy="12" r="7" fill="none" stroke="#fff" stroke-width="1.1"/><path d="M12 5v3M12 16v3M5 12h3M16 12h3" stroke="#fff" stroke-width="1.3" stroke-linecap="round"/><circle cx="12" cy="12" r="1.7" fill="#fff"/></g><text x="1905" y="674" font-size="14.5" font-weight="700" fill="#1c2230" text-anchor="start" font-family="-apple-system,'Segoe UI',Helvetica,Arial,sans-serif">Jaeger</text><text x="1905" y="692.0" font-size="11" font-weight="400" fill="#5b6270" text-anchor="start" font-family="-apple-system,'Segoe UI',Helvetica,Arial,sans-serif">OTLP traces :4317</text>
<path d="M1770,845 C1800,700 1800,500 1855,430" fill="none" stroke="#3a3f4a" stroke-width="1.8" stroke-dasharray="6,5" stroke-linecap="round" marker-end="url(#arr)"/>
<path d="M1770,900 C1800,800 1820,700 1855,680" fill="none" stroke="#3a3f4a" stroke-width="1.8" stroke-dasharray="6,5" stroke-linecap="round" marker-end="url(#arr)"/>
<path d="M1740,355 C1780,300 1800,250 1855,190" fill="none" stroke="#3a3f4a" stroke-width="1.8" stroke-dasharray="6,5" stroke-linecap="round" marker-end="url(#arr)"/>
<rect x="30" y="1090" width="2080" height="190" rx="14" fill="#5c5f66" fill-opacity="0.06" stroke="#5c5f66" stroke-width="1.6" stroke-dasharray="7,5"/><text x="48" y="1116" font-size="13" font-weight="800" fill="#5c5f66" text-anchor="start" font-family="-apple-system,'Segoe UI',Helvetica,Arial,sans-serif">INFRASTRUCTURE -- TERRAFORM (IAC) + GITHUB ACTIONS CI/CD</text>
<rect x="60" y="1150" width="190" height="54" rx="9" fill="#ffffff" stroke="#c7cdd6" stroke-width="1.5"/><rect x="60" y="1150" width="6" height="54" rx="3" fill="#1B1F24"/><g transform="translate(76,1160) scale(1.0)"><rect width="24" height="24" rx="5" fill="#1B1F24"/><path d="M12 5.5a6.5 6.5 0 00-2.1 12.7c.3.1.4-.2.4-.3v-1.2c-1.8.4-2.2-.8-2.2-.8-.3-.8-.7-1-.7-1-.6-.4 0-.4 0-.4.7 0 1 .7 1 .7.6 1 1.6.8 2 .6 0-.4.2-.8.4-1-1.6-.2-3.2-.8-3.2-3.5 0-.8.3-1.4.7-1.9 0-.2-.3-1 .1-2 0 0 .6-.2 2 .7a6.8 6.8 0 013.6 0c1.4-1 2-.7 2-.7.4 1 .1 1.8.1 2 .4.5.7 1.1.7 1.9 0 2.7-1.6 3.3-3.2 3.5.3.2.5.7.5 1.4v2c0 .1.1.4.4.3A6.5 6.5 0 0012 5.5z" fill="#fff"/></g><text x="110" y="1174" font-size="14.5" font-weight="700" fill="#1c2230" text-anchor="start" font-family="-apple-system,'Segoe UI',Helvetica,Arial,sans-serif">GitHub</text><text x="110" y="1192.0" font-size="11" font-weight="400" fill="#5b6270" text-anchor="start" font-family="-apple-system,'Segoe UI',Helvetica,Arial,sans-serif">push to main</text>
<rect x="270" y="1150" width="180" height="54" rx="9" fill="#ffffff" stroke="#c7cdd6" stroke-width="1.5"/><rect x="270" y="1150" width="6" height="54" rx="3" fill="#ED7100"/><g transform="translate(286,1160) scale(1.0)"><rect width="24" height="24" rx="5" fill="#ED7100"/><path d="M4.5 12.2h14.7s.4 3-2 4.6c-2 1.3-8.6 1.3-10.6-.4-1.7-1.4-2.1-4.2-2.1-4.2z" fill="#fff"/><rect x="6" y="9.3" width="2.2" height="2.2" fill="#fff"/><rect x="9" y="9.3" width="2.2" height="2.2" fill="#fff"/><rect x="12" y="9.3" width="2.2" height="2.2" fill="#fff"/><rect x="9" y="6.6" width="2.2" height="2.2" fill="#fff"/></g><text x="320" y="1174" font-size="14.5" font-weight="700" fill="#1c2230" text-anchor="start" font-family="-apple-system,'Segoe UI',Helvetica,Arial,sans-serif">ECR</text><text x="320" y="1192.0" font-size="11" font-weight="400" fill="#5b6270" text-anchor="start" font-family="-apple-system,'Segoe UI',Helvetica,Arial,sans-serif">5 image repos</text>
<rect x="470" y="1150" width="200" height="54" rx="9" fill="#ffffff" stroke="#c7cdd6" stroke-width="1.5"/><rect x="470" y="1150" width="6" height="54" rx="3" fill="#7AA116"/><g transform="translate(486,1160) scale(1.0)"><rect width="24" height="24" rx="5" fill="#7AA116"/><rect x="6" y="6" width="12" height="12" rx="1.5" fill="none" stroke="#fff" stroke-width="1.3"/><path d="M9 12l2 2 4-4" stroke="#fff" stroke-width="1.4" fill="none" stroke-linecap="round" stroke-linejoin="round"/></g><text x="520" y="1174" font-size="14.5" font-weight="700" fill="#1c2230" text-anchor="start" font-family="-apple-system,'Segoe UI',Helvetica,Arial,sans-serif">AWS SSM</text><text x="520" y="1192.0" font-size="11" font-weight="400" fill="#5b6270" text-anchor="start" font-family="-apple-system,'Segoe UI',Helvetica,Arial,sans-serif">Run Command deploy</text>
<rect x="690" y="1150" width="180" height="54" rx="9" fill="#ffffff" stroke="#c7cdd6" stroke-width="1.5"/><rect x="690" y="1150" width="6" height="54" rx="3" fill="#ED7100"/><g transform="translate(706,1160) scale(1.0)"><rect width="24" height="24" rx="5" fill="#ED7100"/><rect x="6" y="6" width="12" height="12" rx="1.5" fill="none" stroke="#fff" stroke-width="1.3"/><rect x="9" y="9" width="6" height="6" rx="1" fill="#fff"/></g><text x="740" y="1174" font-size="14.5" font-weight="700" fill="#1c2230" text-anchor="start" font-family="-apple-system,'Segoe UI',Helvetica,Arial,sans-serif">EC2</text><text x="740" y="1192.0" font-size="11" font-weight="400" fill="#5b6270" text-anchor="start" font-family="-apple-system,'Segoe UI',Helvetica,Arial,sans-serif">m5.2xlarge, all containers</text>
<rect x="890" y="1150" width="220" height="54" rx="9" fill="#ffffff" stroke="#c7cdd6" stroke-width="1.5"/><rect x="890" y="1150" width="6" height="54" rx="3" fill="#2E73B8"/><g transform="translate(906,1160) scale(1.0)"><rect width="24" height="24" rx="5" fill="#2E73B8"/><ellipse cx="12" cy="7.2" rx="6" ry="2.1" fill="none" stroke="#fff" stroke-width="1.2"/><path d="M6 7.2v9.6c0 1.16 2.7 2.1 6 2.1s6-.94 6-2.1V7.2" fill="none" stroke="#fff" stroke-width="1.2"/><path d="M6 12c0 1.16 2.7 2.1 6 2.1s6-.94 6-2.1" fill="none" stroke="#fff" stroke-width="1.2"/></g><text x="940" y="1174" font-size="14.5" font-weight="700" fill="#1c2230" text-anchor="start" font-family="-apple-system,'Segoe UI',Helvetica,Arial,sans-serif">RDS Postgres</text><text x="940" y="1192.0" font-size="11" font-weight="400" fill="#5b6270" text-anchor="start" font-family="-apple-system,'Segoe UI',Helvetica,Arial,sans-serif">iceberg_metadata, mlflow, airflow</text>
<rect x="1130" y="1150" width="220" height="54" rx="9" fill="#ffffff" stroke="#c7cdd6" stroke-width="1.5"/><rect x="1130" y="1150" width="6" height="54" rx="3" fill="#3F8624"/><g transform="translate(1146,1160) scale(1.0)"><rect width="24" height="24" rx="5" fill="#3F8624"/><path d="M7 6h10v3.2c0 .5-1 1-1 1.8s1 1.3 1 1.8-1 1-1 1.8 1 1.3 1 1.8v2.6H7v-2.6c0-.5 1-1 1-1.8s-1-1.3-1-1.8 1-1 1-1.8-1-1.3-1-1.8V6z" fill="none" stroke="#fff" stroke-width="1.1"/></g><text x="1180" y="1174" font-size="14.5" font-weight="700" fill="#1c2230" text-anchor="start" font-family="-apple-system,'Segoe UI',Helvetica,Arial,sans-serif">S3 lakehouse</text><text x="1180" y="1192.0" font-size="11" font-weight="400" fill="#5b6270" text-anchor="start" font-family="-apple-system,'Segoe UI',Helvetica,Arial,sans-serif">warehouse/, model_artifacts/</text>
<rect x="1370" y="1150" width="180" height="54" rx="9" fill="#ffffff" stroke="#c7cdd6" stroke-width="1.5"/><rect x="1370" y="1150" width="6" height="54" rx="3" fill="#5C4EE5"/><g transform="translate(1386,1160) scale(1.0)"><rect width="24" height="24" rx="5" fill="#5C4EE5"/><path d="M9 5.3l3.4 2v4l-3.4-2z" fill="#fff"/><path d="M13 7.5l3.4-2v4l-3.4 2z" fill="#fff" opacity=".75"/><path d="M9 10.5l3.4 2v4l-3.4-2z" fill="#fff" opacity=".55"/><path d="M13 12.7l3.4-2v4l-3.4 2z" fill="#fff" opacity=".95"/></g><text x="1420" y="1174" font-size="14.5" font-weight="700" fill="#1c2230" text-anchor="start" font-family="-apple-system,'Segoe UI',Helvetica,Arial,sans-serif">Terraform</text><text x="1420" y="1192.0" font-size="11" font-weight="400" fill="#5b6270" text-anchor="start" font-family="-apple-system,'Segoe UI',Helvetica,Arial,sans-serif">phase1 IaC</text>
<rect x="1580" y="1150" width="220" height="54" rx="9" fill="#ffffff" stroke="#c7cdd6" stroke-width="1.5"/><rect x="1580" y="1150" width="6" height="54" rx="3" fill="#4B5563"/><g transform="translate(1596,1160) scale(1.0)"><rect width="24" height="24" rx="5" fill="#4B5563"/><path d="M12 8.5a3.5 3.5 0 100 7 3.5 3.5 0 000-7z" fill="none" stroke="#fff" stroke-width="1.2"/><path d="M12 5v1.6M12 17.4V19M5 12h1.6M17.4 12H19M7 7l1.1 1.1M15.9 15.9L17 17M17 7l-1.1 1.1M8.1 15.9L7 17" stroke="#fff" stroke-width="1.1" stroke-linecap="round"/></g><text x="1630" y="1174" font-size="14.5" font-weight="700" fill="#1c2230" text-anchor="start" font-family="-apple-system,'Segoe UI',Helvetica,Arial,sans-serif">Locust</text><text x="1630" y="1192.0" font-size="11" font-weight="400" fill="#5b6270" text-anchor="start" font-family="-apple-system,'Segoe UI',Helvetica,Arial,sans-serif">load test -&gt; Serving</text>
<path d="M250,1177 L270,1177" fill="none" stroke="#3a3f4a" stroke-width="1.8" stroke-dasharray="6,5" stroke-linecap="round" marker-end="url(#arr)"/>
<path d="M450,1177 L470,1177" fill="none" stroke="#3a3f4a" stroke-width="1.8" stroke-dasharray="6,5" stroke-linecap="round" marker-end="url(#arr)"/>
<path d="M670,1177 L690,1177" fill="none" stroke="#3a3f4a" stroke-width="1.8" stroke-dasharray="6,5" stroke-linecap="round" marker-end="url(#arr)"/>
<path d="M870,1177 L890,1177" fill="none" stroke="#3a3f4a" stroke-width="1.8" stroke-dasharray="6,5" stroke-linecap="round" marker-end="url(#arr)"/>
<path d="M1110,1177 L1130,1177" fill="none" stroke="#3a3f4a" stroke-width="1.8" stroke-dasharray="6,5" stroke-linecap="round" marker-end="url(#arr)"/>
<path d="M1350,1177 L1370,1177" fill="none" stroke="#3a3f4a" stroke-width="1.8" stroke-dasharray="6,5" stroke-linecap="round" marker-end="url(#arr)"/>
<path d="M1550,1177 L1580,1177" fill="none" stroke="#3a3f4a" stroke-width="1.8" stroke-dasharray="6,5" stroke-linecap="round" marker-end="url(#arr)"/>
<path d="M195,265 L195,1150" fill="none" stroke="#3a3f4a" stroke-width="1.8" stroke-dasharray="6,5" stroke-linecap="round" marker-end="url(#arr)"/>
<rect x="200" y="707" width="152.8" height="18" rx="4" fill="#ffffff" stroke="#e3e6ec" stroke-width="1"/><text x="205" y="720" font-size="11.5" font-weight="600" fill="#2b3a8a" text-anchor="start" font-family="-apple-system,'Segoe UI',Helvetica,Arial,sans-serif">push image after build</text>
<path d="M780,1150 L780,1120 L1460,1120 L1460,720" fill="none" stroke="#3a3f4a" stroke-width="1.8" stroke-dasharray="6,5" stroke-linecap="round" marker-end="url(#arr)"/>
<rect x="995" y="1101" width="191.20000000000002" height="18" rx="4" fill="#ffffff" stroke="#e3e6ec" stroke-width="1"/><text x="1000" y="1114" font-size="11.5" font-weight="600" fill="#2b3a8a" text-anchor="start" font-family="-apple-system,'Segoe UI',Helvetica,Arial,sans-serif">EC2 hosts Training + Serving</text>
<path d="M1690,1150 L1690,1120 L1710,900" fill="none" stroke="#1e7a3d" stroke-width="1.8" stroke-dasharray="6,5" stroke-linecap="round" marker-end="url(#arr)"/>
</svg>
